<svg xmlns="http://www.w3.org/2000/svg" width="200" height="46.38" viewBox="0 0 200 46.38"><defs><style>.cls-1{fill:#fff;}.cls-2{fill:none;}.cls-3{fill:#414042;}.cls-4{fill:#cb4e4b;}.cls-5{fill:#34b9c6;}.cls-6{fill:#b5d55b;}.cls-7{fill:#ffcf2e;}.cls-8{fill:#ddd;}</style></defs><title>Logo_SVG</title><g id="Layer_2" data-name="Layer 2"><g id="Layer_1-2" data-name="Layer 1"><g id="baby"><rect id="window" class="cls-1" x="27.84" y="15.15" width="11.98" height="10.95"/><g id="train"><path class="cls-2" d="M29.22,15.68h9.31a.85.85,0,0,1,.86.86v6.87a.85.85,0,0,1-.86.86H29.22a.86.86,0,0,1-.86-.86V16.54a.85.85,0,0,1,.86-.86Z"/><path class="cls-2" d="M14.19,39.34a5.54,5.54,0,0,1,.21.57h1a5.54,5.54,0,0,1,.21-.57Z"/><path class="cls-2" d="M25,39.91h1.15l-.09-.57H24.79A4.79,4.79,0,0,1,25,39.91Z"/><path class="cls-3" d="M1.6,24.67H.86a.87.87,0,0,0-.86.86H0v3.21a.86.86,0,0,0,.86.86h.8A13.85,13.85,0,0,1,1.6,24.67Z"/><path class="cls-4" d="M25.14,14.13v4.81H15.9V14.41H10.41v4.53H6.23c-2.65.52-4.13,2.91-4.63,5.73a13.85,13.85,0,0,0,.06,4.93,10.2,10.2,0,0,0,2,4.65H27.12a8,8,0,0,1,13.8,0h1.7V14.13a1.36,1.36,0,0,0,0-.29H25.17A1.36,1.36,0,0,0,25.14,14.13ZM10.67,27.83a.86.86,0,0,1-.86.86H9.72a.86.86,0,0,1-.86-.86V21.91a.85.85,0,0,1,.86-.86h.09a.85.85,0,0,1,.86.86Zm3.42,0a.87.87,0,0,1-.86.86h-.1a.87.87,0,0,1-.86-.86V21.91a.86.86,0,0,1,.86-.86h.1a.86.86,0,0,1,.86.86h0Zm3.2,0a.87.87,0,0,1-.86.86h-.1a.87.87,0,0,1-.86-.86V21.91a.86.86,0,0,1,.86-.86h.1a.86.86,0,0,1,.86.86ZM28.36,16.54a.86.86,0,0,1,.86-.86h9.31a.85.85,0,0,1,.86.86v6.87a.85.85,0,0,1-.86.86H29.22a.86.86,0,0,1-.86-.86h0Z"/><path class="cls-5" d="M7.59,41.2v-.43a.85.85,0,0,1,.86-.86h6a5,5,0,1,0,.16,2.15H8.45a.86.86,0,0,1-.86-.86Z"/><path class="cls-5" d="M20.2,46.36a5,5,0,0,0,5-4.3H15.23A5,5,0,0,0,20.2,46.36Z"/><path class="cls-5" d="M20.2,36.33a5,5,0,0,0-4.81,3.58H25A5,5,0,0,0,20.2,36.33Z"/><path class="cls-5" d="M40.92,34.25A8,8,0,0,0,26,38.33a8.55,8.55,0,0,0,.06,1c0,.19.06.38.09.57h9.23a.85.85,0,0,1,.86.86v.43a.86.86,0,0,1-.86.86H26.91a8,8,0,0,0,14.25-7.4l-.24-.42Z"/><path class="cls-3" d="M9.6,36.33a5,5,0,0,1,4.59,3H15.6a5,5,0,0,1,9.19,0h1.27a8.39,8.39,0,0,1-.06-1,7.94,7.94,0,0,1,1.12-4.09H3.69a.88.88,0,0,0-.8.86v3.37a.88.88,0,0,0,.88.86H5A5,5,0,0,1,9.6,36.33Z"/><path class="cls-3" d="M42,38.33a8.55,8.55,0,0,1-.06,1h.83a.88.88,0,0,0,.88-.86V35.11a.87.87,0,0,0-.88-.86H40.92A7.93,7.93,0,0,1,42,38.33Z"/><path class="cls-3" d="M43.76,9.11H24a1.43,1.43,0,0,0-1.43,1.43h0v1.87A1.43,1.43,0,0,0,24,13.84H43.76a1.43,1.43,0,0,0,1.43-1.43V10.54A1.43,1.43,0,0,0,43.76,9.11Z"/><path class="cls-3" d="M16.76,14.41a.86.86,0,0,0,.86-.86V12.43a.87.87,0,0,0-.86-.86h-7a.87.87,0,0,0-.86.86h0v1.12a.86.86,0,0,0,.86.86Z"/><path class="cls-6" d="M36.24,41.2v-.43a.85.85,0,0,0-.86-.86H8.45a.86.86,0,0,0-.86.86h0v.43a.86.86,0,0,0,.86.86H35.38a.86.86,0,0,0,.86-.86Z"/><rect class="cls-7" x="15.47" y="21.05" width="1.81" height="7.64" rx="0.86" ry="0.86"/><path class="cls-7" d="M13.23,21.05h-.1a.86.86,0,0,0-.86.86v5.92a.87.87,0,0,0,.86.86h.1a.87.87,0,0,0,.86-.86V21.91a.86.86,0,0,0-.86-.86Z"/><path class="cls-7" d="M9.81,21.05H9.72a.85.85,0,0,0-.86.86v5.92a.86.86,0,0,0,.86.86h.09a.86.86,0,0,0,.86-.86V21.91A.85.85,0,0,0,9.81,21.05Z"/></g><path id="clouds" class="cls-8" d="M21.85,3A2.36,2.36,0,0,0,19.5.64,2.38,2.38,0,0,0,18,1.22a3.1,3.1,0,0,0-5.53,1.43h0a2.57,2.57,0,0,0,0,5.14,2.43,2.43,0,0,0,.38,0A3.1,3.1,0,0,0,17,8.9,3.19,3.19,0,0,0,18,8a2.18,2.18,0,0,0,3-3.12A2.37,2.37,0,0,0,21.85,3Z"/><path class="cls-1" d="M73.79,38.78l-1.56-.07-1.44,0c-.71,0-1.45,0-2.23.09s-1.57.13-2.37.22c.39-2.53.68-5,.89-7.31s.31-4.76.31-7.27c0-2.68-.67-4-2-4a2.62,2.62,0,0,0-1.22.38,6.9,6.9,0,0,0-1.39,1,9.82,9.82,0,0,0-1.3,1.43,10.05,10.05,0,0,0-1,1.59c-.06,1.56-.1,3-.11,4.22s0,2.42,0,3.51v1.73h3.25v4.06H62.4c-1.3,0-2.45,0-3.47,0s-1.93.07-2.74.13l-2.25.17c-.69.06-1.36.11-2,.14l-.49-4,4.73-.44c0-.36,0-.89,0-1.59s.06-1.52.09-2.43.07-1.88.13-2.88.1-2,.13-2.94.06-1.83.09-2.62.05-1.43.05-1.9c0-1.33,0-2.53-.11-3.62s-.19-2.14-.33-3.14H51.88V9.18h8.35c.12,1.42.21,3,.29,4.62s.11,3.7.11,6.12a7.07,7.07,0,0,1,2.16-2.87,5.67,5.67,0,0,1,3.36-.89,4.17,4.17,0,0,1,2.25.64,5.35,5.35,0,0,1,1.7,1.77,9.34,9.34,0,0,1,1.06,2.63,13.35,13.35,0,0,1,.38,3.27c0,.67-.06,1.86-.18,3.55s-.31,3.88-.57,6.56c1,.09,1.84.13,2.6.13a5.34,5.34,0,0,0,.58,0l.53-.06Z"/><path class="cls-1" d="M89.08,37.85l-12.63.8v-4l3.84-.31c-.06-2.59-.12-4.85-.18-6.76S80,23.94,80,22.43H75.65V18.37H84c0,2,0,4.28.07,6.76s.11,5.39.2,8.74l4.42.18ZM84,13.07a4.28,4.28,0,0,1-.26,1.46A4.13,4.13,0,0,1,83,15.79a3.87,3.87,0,0,1-1.13.88,3.14,3.14,0,0,1-1.44.33,3.42,3.42,0,0,1-2.71-1.08,4.16,4.16,0,0,1-1-2.85,3.74,3.74,0,0,1,1-2.68,3.47,3.47,0,0,1,2.63-1,3.43,3.43,0,0,1,2.65,1A3.73,3.73,0,0,1,84,13.07Z"/><path class="cls-1" d="M105,39.13a47.93,47.93,0,0,0,.57-6.89c.15-2.1.11-4.11.11-6.05,0-2.83-.67-4.24-2-4.24-1,0-2.13.66-3.4,2a11.8,11.8,0,0,0-1.06,1.28,5.66,5.66,0,0,0-.62,1.1,4.08,4.08,0,0,0-.29,1.09,9.71,9.71,0,0,0-.06,1.21c0,.41,0,.88,0,1.41s.08,1.12.13,1.77l.22,3.14h3.54l.44,4.19H91.15l-.22-4.28,3.54.18-.31-12.37c-.5,0-1.1-.1-1.79-.2l-2.45-.38.57-4q2,.27,4,.42c1.36.1,2.77.15,4.24.15-.06.3-.13.74-.22,1.33s-.18,1.32-.26,2.21a6.35,6.35,0,0,1,6.4-4.16q3.4,0,4.24,3.63,2.7-3.5,6.27-3.49,5.53,0,5.53,7.24a26.2,26.2,0,0,1-.4,3.93c-.27,1.62-.66,3.7-1.19,6.23.79-.06,1.51-.1,2.16-.13s1.22,0,1.72,0v4.07c-.41,0-1,0-1.85,0l-2.63.09-2.6.09c-.81,0-1.4,0-1.75,0,.26-1.2.54-2.45.84-3.73s.57-2.52.82-3.73.45-2.37.61-3.49a20.8,20.8,0,0,0,.25-3.05c0-2.09-.72-3.14-2.17-3.14a5,5,0,0,0-2.63.64A4.83,4.83,0,0,0,110.24,25a8.09,8.09,0,0,0-.91,2.38c-.19.88-.34,1.78-.46,2.7s-.14,1.8-.22,2.67a16.45,16.45,0,0,1-.19,2.23,25.63,25.63,0,0,0,3.56.31l-.72,3.87"/><path class="cls-1" d="M144.65,32.73a9.54,9.54,0,0,1-1.09,5,3.4,3.4,0,0,1-3.07,1.79,3.57,3.57,0,0,1-3.44-2.43,5.36,5.36,0,0,1-4.55,2.38,7.44,7.44,0,0,1-2.76-.53,8.87,8.87,0,0,1-2.5-1.43,7.79,7.79,0,0,1-1.81-2.15,5.23,5.23,0,0,1-.7-2.65,5.54,5.54,0,0,1,.64-2.69A4.57,4.57,0,0,1,127,28.18a11.3,11.3,0,0,1,2-1c.89-.35,2.12-.81,3.71-1.36a6.54,6.54,0,0,0,2.1-1.07,1.76,1.76,0,0,0,.69-1.41,1.78,1.78,0,0,0-2-2c-2,0-3,1-3,2.88a3.2,3.2,0,0,0,.13,1l-4.51.31v-1a5.64,5.64,0,0,1,.69-2.72,7.53,7.53,0,0,1,1.81-2.2A9.22,9.22,0,0,1,131,18.08a7.42,7.42,0,0,1,2.79-.55q6,0,6,8.57c0,.27,0,.66,0,1.19s-.05,1.09-.08,1.66-.06,1.12-.09,1.63,0,.9,0,1.13q0,3.84,1,3.84c.23,0,.35-.94.35-2.82Zm-8.88-4.24a13.11,13.11,0,0,1-2.92,1.41,10.41,10.41,0,0,0-2.38,1.1,3.76,3.76,0,0,0-1.08,1,1.5,1.5,0,0,0-.34.84,1.86,1.86,0,0,0,.31,1.06,2.22,2.22,0,0,0,.82.7,4.24,4.24,0,0,0,1.15.4,5.86,5.86,0,0,0,1.26.13,3.15,3.15,0,0,0,1.48-.31,2.17,2.17,0,0,0,1-1.06,7.47,7.47,0,0,0,.53-2,28.9,28.9,0,0,0,.22-3.22Z"/><path class="cls-1" d="M200,32.73a9.65,9.65,0,0,1-1.08,5,3.42,3.42,0,0,1-3.07,1.79,3.58,3.58,0,0,1-3.45-2.43,5.36,5.36,0,0,1-4.55,2.38,7.44,7.44,0,0,1-2.76-.53,8.82,8.82,0,0,1-2.49-1.43,7.66,7.66,0,0,1-1.82-2.15,5.33,5.33,0,0,1-.7-2.65,5.54,5.54,0,0,1,.64-2.69,4.57,4.57,0,0,1,1.66-1.81,11.3,11.3,0,0,1,2-1c.89-.35,2.12-.81,3.71-1.36a6.54,6.54,0,0,0,2.1-1.07,1.76,1.76,0,0,0,.69-1.41,1.78,1.78,0,0,0-2-2c-2,0-3.05,1-3.05,2.88a3.2,3.2,0,0,0,.13,1l-4.51.31v-1a5.64,5.64,0,0,1,.69-2.72,7.53,7.53,0,0,1,1.81-2.2,9.22,9.22,0,0,1,2.49-1.51,7.42,7.42,0,0,1,2.79-.55q6,0,6,8.57c0,.27,0,.66,0,1.19s-.06,1.09-.09,1.66-.06,1.12-.09,1.63,0,.9,0,1.13q0,3.84,1,3.84c.24,0,.35-.94.35-2.82Zm-8.88-4.24a13.25,13.25,0,0,1-2.91,1.41,10.31,10.31,0,0,0-2.39,1.1,3.76,3.76,0,0,0-1.08,1,1.5,1.5,0,0,0-.34.84,1.86,1.86,0,0,0,.31,1.06,2.31,2.31,0,0,0,.82.7,4.24,4.24,0,0,0,1.15.4,5.92,5.92,0,0,0,1.26.13,3.15,3.15,0,0,0,1.48-.31,2.17,2.17,0,0,0,1-1.06,7.47,7.47,0,0,0,.53-2,28.9,28.9,0,0,0,.22-3.22Z"/><path class="cls-1" d="M160.27,38.71a47.93,47.93,0,0,0,.57-6.89c.15-2.1.11-4.11.11-6.05,0-2.83-.67-4.24-2-4.24-1,0-2.13.66-3.4,2a11.8,11.8,0,0,0-1.06,1.28,5.66,5.66,0,0,0-.62,1.1,4.08,4.08,0,0,0-.29,1.09,9.81,9.81,0,0,0-.06,1.21c0,.41,0,.89,0,1.42s.08,1.11.13,1.76l.22,3.14h3.54l.44,4.19h-11.4l-.22-4.28,3.54.18-.31-12.37c-.5,0-1.1-.1-1.79-.2l-2.45-.38.57-4q2,.27,4,.42c1.36.1,2.77.15,4.24.15-.06.3-.13.74-.22,1.33s-.18,1.32-.26,2.21a6.36,6.36,0,0,1,6.4-4.16q3.41,0,4.24,3.63,2.7-3.49,6.27-3.49Q176,17.78,176,25a26.2,26.2,0,0,1-.4,3.93c-.27,1.62-.66,3.7-1.19,6.23.79-.06,1.51-.1,2.16-.13s1.22,0,1.72,0v4.06c-.41,0-1,0-1.85,0l-2.63.08-2.6.09-1.75.05c.27-1.21.54-2.46.84-3.74s.57-2.52.82-3.73.45-2.37.61-3.49a20.8,20.8,0,0,0,.25-3.05c0-2.09-.72-3.13-2.17-3.13a4.93,4.93,0,0,0-2.63.64,4.8,4.8,0,0,0-1.65,1.7,8.09,8.09,0,0,0-.91,2.38c-.19.89-.34,1.78-.46,2.7s-.14,1.8-.22,2.67a16.45,16.45,0,0,1-.19,2.23,26.48,26.48,0,0,0,3.56.32l-.72,3.87"/></g></g></g></svg>